<?xml version="1.0" encoding="UTF-8"?>
<svg width="1024px" height="1024px" viewBox="0 0 1024 1024" version="1.1" xmlns="http://www.w3.org/2000/svg" xmlns:xlink="http://www.w3.org/1999/xlink">
    <title>base</title>
    <g id="é¡µé¢-1" stroke="none" stroke-width="1" fill="none" fill-rule="evenodd">
        <g id="base" fill="#999999" fill-rule="nonzero">
            <path d="M170.666667,563.2 L170.666667,358.4 C170.666667,348.16 163.84,341.333333 153.6,341.333333 L119.466667,341.333333 C54.613333,341.333333 0,395.946667 0,460.8 C0,525.653333 54.613333,580.266667 119.466667,580.266667 L153.6,580.266667 C163.84,580.266667 170.666667,573.44 170.666667,563.2 L170.666667,563.2 Z M215.04,785.066667 C211.626667,781.653334 208.213333,778.24 201.386667,781.653333 C197.973334,781.653333 191.146667,785.066666 187.733333,788.48 L167.253333,812.373333 L163.84,815.786667 L157.013333,822.613333 L150.186667,829.44 L146.773333,832.853333 C112.64,880.64 116.053333,948.906666 160.426667,993.28 C187.733334,1010.34667 221.866667,1024 252.586667,1024 C283.306667,1024 317.44,1010.34667 341.333333,986.453333 L365.226667,959.146667 C372.053334,952.32 372.053334,942.08 365.226667,935.253333 L215.04,785.066667 Z M870.4,822.613333 L863.573333,815.786667 C863.573333,812.373334 860.16,812.373334 856.746667,808.96 L836.266667,785.066667 C832.853334,781.653334 829.44,778.24 822.613333,778.24 C819.2,778.24 812.373333,778.24 808.96,781.653333 L655.36,935.253333 C648.533333,942.08 648.533333,952.32 655.36,959.146667 L679.253333,986.453333 C703.146666,1010.34667 733.866666,1024 768,1024 C802.133334,1024 832.853333,1010.34667 856.746667,986.453333 C897.706667,945.493333 904.533334,877.226666 870.4,826.026667 L870.4,822.613333 L870.4,822.613333 Z M904.533333,341.333333 L870.4,341.333333 C860.16,341.333333 853.333333,348.16 853.333333,358.4 L853.333333,563.2 C853.333333,573.44 860.16,580.266667 870.4,580.266667 L904.533333,580.266667 C969.386666,580.266667 1024,525.653334 1024,460.8 C1024,395.946666 969.386667,341.333333 904.533333,341.333333 Z M788.48,733.866667 L730.453333,665.6 C713.386666,648.533333 713.386666,624.64 720.213333,610.986667 C727.04,597.333334 744.106666,580.266667 768,580.266667 L802.133333,580.266667 C812.373333,580.266667 819.2,573.44 819.2,563.2 L819.2,358.4 C819.2,348.16 812.373333,341.333333 802.133333,341.333333 L699.733333,341.333333 C692.906666,341.333333 682.666666,334.506666 682.666667,331.093333 C716.8,283.306666 730.453334,225.28 716.8,167.253333 C699.733333,85.333333 634.88,20.48 556.373333,3.413333 C542.72,0 525.653333,0 512,0 C395.946667,0 300.373333,95.573333 300.373333,211.626667 C300.373333,256 314.026666,296.96 341.333333,334.506667 C341.333333,334.506667 331.093333,341.333334 324.266667,341.333333 L221.866667,341.333333 C211.626667,341.333333 204.8,348.16 204.8,358.4 L204.8,563.2 C204.8,573.44 211.626667,580.266667 221.866667,580.266667 L256,580.266667 C279.893333,580.266667 296.96,597.333334 303.786667,610.986667 C310.613334,624.64 310.613334,648.533334 293.546667,665.6 L235.52,733.866667 C228.693333,740.693334 228.693333,750.933334 235.52,757.76 L389.12,911.36 C392.533333,914.773333 395.946667,918.186667 402.773333,914.773333 C406.186666,914.773333 413.013333,911.36 416.426667,907.946667 L447.146667,873.813333 C481.28,832.853333 549.546667,832.853333 587.093333,873.813333 L617.813333,907.946667 C621.226666,911.36 624.64,914.773334 631.466667,914.773333 C634.88,914.773333 641.706667,911.36 645.12,911.36 L798.72,757.76 C795.306667,750.933333 795.306667,740.693333 788.48,733.866667 L788.48,733.866667 Z M392.533333,170.666667 C392.533333,150.186667 406.186666,136.533333 426.666667,136.533333 C447.146668,136.533333 460.8,150.186666 460.8,170.666667 C460.8,191.146668 447.146667,204.8 426.666667,204.8 C406.186667,204.8 392.533333,191.146667 392.533333,170.666667 Z M512,750.933333 C491.52,750.933333 477.866667,737.28 477.866667,716.8 C477.866667,696.32 491.52,682.666667 512,682.666667 C532.48,682.666667 546.133333,696.32 546.133333,716.8 C546.133333,737.28 532.48,750.933333 512,750.933333 Z M512,614.4 C491.52,614.4 477.866667,600.746667 477.866667,580.266667 C477.866667,559.786667 491.52,546.133333 512,546.133333 C532.48,546.133333 546.133333,559.786666 546.133333,580.266667 C546.133333,600.746668 532.48,614.4 512,614.4 Z M512,477.866667 C491.52,477.866667 477.866667,464.213334 477.866667,443.733333 C477.866667,423.253332 491.52,409.6 512,409.6 C532.48,409.6 546.133333,423.253333 546.133333,443.733333 C546.133333,464.213333 532.48,477.866667 512,477.866667 Z M610.986667,283.306667 C610.986667,286.72 573.44,344.746667 512,344.746667 C450.56,344.746667 413.013333,286.72 413.013333,283.306667 C406.186666,273.066667 409.6,262.826667 416.426667,259.413333 C423.253334,256 433.493334,256 440.32,266.24 C440.32,266.24 467.626667,310.613333 512,310.613333 C556.373333,310.613333 583.68,266.24 583.68,266.24 C587.093333,259.413333 600.746667,256 607.573333,259.413333 C614.4,262.826666 617.813333,273.066666 610.986667,283.306667 Z M597.333333,204.8 C576.853333,204.8 563.2,191.146667 563.2,170.666667 C563.2,150.186667 576.853333,136.533333 597.333333,136.533333 C617.813333,136.533333 631.466667,150.186666 631.466667,170.666667 C631.466667,191.146668 617.813334,204.8 597.333333,204.8 Z" id="å½¢çŠ¶"></path>
        </g>
    </g>
</svg>